<mxfile host="app.diagrams.net" modified="2024-03-01T23:42:53.207Z" agent="Mozilla/5.0 (Windows NT 10.0; Win64; x64) AppleWebKit/537.36 (KHTML, like Gecko) Chrome/122.0.0.0 Safari/537.36" etag="8Y0FLV-auVC1bR6t8tPx" version="23.1.5" type="github">
  <diagram name="Page-1" id="e56a1550-8fbb-45ad-956c-1786394a9013">
    <mxGraphModel dx="1035" dy="551" grid="1" gridSize="10" guides="1" tooltips="1" connect="1" arrows="1" fold="1" page="1" pageScale="1" pageWidth="1100" pageHeight="850" background="none" math="0" shadow="0">
      <root>
        <mxCell id="0" />
        <mxCell id="1" parent="0" />
        <mxCell id="Qn2qlTN2ILUu-nCu6F_l-32" value="" style="rounded=1;whiteSpace=wrap;html=1;fontFamily=Verdana;fontSize=14;fontColor=default;labelBackgroundColor=none;" vertex="1" parent="1">
          <mxGeometry x="20" y="30" width="800" height="580" as="geometry" />
        </mxCell>
        <mxCell id="2e49270ec7c68f3f-19" value="FTC SALES" style="swimlane;html=1;fontStyle=0;childLayout=stackLayout;horizontal=1;startSize=26;fillColor=#0c7605;horizontalStack=0;resizeParent=1;resizeLast=0;collapsible=1;marginBottom=0;swimlaneFillColor=#ffffff;align=center;rounded=0;shadow=0;comic=0;labelBackgroundColor=none;strokeWidth=1;fontFamily=Verdana;fontSize=15;fontColor=#ffffff;" parent="1" vertex="1">
          <mxGeometry x="310" y="286" width="180" height="194" as="geometry" />
        </mxCell>
        <mxCell id="2e49270ec7c68f3f-20" value="id_sales_detail" style="shape=partialRectangle;top=0;left=0;right=0;bottom=1;html=1;align=left;verticalAlign=middle;fillColor=none;spacingLeft=34;spacingRight=4;whiteSpace=wrap;overflow=hidden;rotatable=0;points=[[0,0.5],[1,0.5]];portConstraint=eastwest;dropTarget=0;fontStyle=1;fontSize=15;" parent="2e49270ec7c68f3f-19" vertex="1">
          <mxGeometry y="26" width="180" height="30" as="geometry" />
        </mxCell>
        <mxCell id="2e49270ec7c68f3f-21" value="SK&amp;nbsp;" style="shape=partialRectangle;top=0;left=0;bottom=0;html=1;fillColor=none;align=left;verticalAlign=middle;spacingLeft=4;spacingRight=4;whiteSpace=wrap;overflow=hidden;rotatable=0;points=[];portConstraint=eastwest;part=1;" parent="2e49270ec7c68f3f-20" vertex="1" connectable="0">
          <mxGeometry width="30" height="30" as="geometry" />
        </mxCell>
        <mxCell id="2e49270ec7c68f3f-22" value="Id_customer" style="shape=partialRectangle;top=0;left=0;right=0;bottom=0;html=1;align=left;verticalAlign=top;fillColor=none;spacingLeft=34;spacingRight=4;whiteSpace=wrap;overflow=hidden;rotatable=0;points=[[0,0.5],[1,0.5]];portConstraint=eastwest;dropTarget=0;fontSize=15;" parent="2e49270ec7c68f3f-19" vertex="1">
          <mxGeometry y="56" width="180" height="26" as="geometry" />
        </mxCell>
        <mxCell id="2e49270ec7c68f3f-23" value="FK" style="shape=partialRectangle;top=0;left=0;bottom=0;html=1;fillColor=none;align=left;verticalAlign=top;spacingLeft=4;spacingRight=4;whiteSpace=wrap;overflow=hidden;rotatable=0;points=[];portConstraint=eastwest;part=1;" parent="2e49270ec7c68f3f-22" vertex="1" connectable="0">
          <mxGeometry width="30" height="26" as="geometry" />
        </mxCell>
        <mxCell id="2e49270ec7c68f3f-24" value="id_product" style="shape=partialRectangle;top=0;left=0;right=0;bottom=0;html=1;align=left;verticalAlign=top;fillColor=default;spacingLeft=34;spacingRight=4;whiteSpace=wrap;overflow=hidden;rotatable=0;points=[[0,0.5],[1,0.5]];portConstraint=eastwest;dropTarget=0;fontSize=15;" parent="2e49270ec7c68f3f-19" vertex="1">
          <mxGeometry y="82" width="180" height="26" as="geometry" />
        </mxCell>
        <mxCell id="2e49270ec7c68f3f-25" value="FK" style="shape=partialRectangle;top=0;left=0;bottom=0;html=1;fillColor=none;align=left;verticalAlign=top;spacingLeft=4;spacingRight=4;whiteSpace=wrap;overflow=hidden;rotatable=0;points=[];portConstraint=eastwest;part=1;" parent="2e49270ec7c68f3f-24" vertex="1" connectable="0">
          <mxGeometry width="30" height="26" as="geometry" />
        </mxCell>
        <mxCell id="2e49270ec7c68f3f-26" value="id_territory" style="shape=partialRectangle;top=0;left=0;right=0;bottom=0;html=1;align=left;verticalAlign=top;fillColor=none;spacingLeft=34;spacingRight=4;whiteSpace=wrap;overflow=hidden;rotatable=0;points=[[0,0.5],[1,0.5]];portConstraint=eastwest;dropTarget=0;fontSize=15;" parent="2e49270ec7c68f3f-19" vertex="1">
          <mxGeometry y="108" width="180" height="26" as="geometry" />
        </mxCell>
        <mxCell id="2e49270ec7c68f3f-27" value="FK" style="shape=partialRectangle;top=0;left=0;bottom=0;html=1;fillColor=none;align=left;verticalAlign=top;spacingLeft=4;spacingRight=4;whiteSpace=wrap;overflow=hidden;rotatable=0;points=[];portConstraint=eastwest;part=1;" parent="2e49270ec7c68f3f-26" vertex="1" connectable="0">
          <mxGeometry width="30" height="26" as="geometry" />
        </mxCell>
        <mxCell id="2e49270ec7c68f3f-28" value="Id_sales_reason" style="shape=partialRectangle;top=0;left=0;right=0;bottom=0;html=1;align=left;verticalAlign=top;fillColor=none;spacingLeft=34;spacingRight=4;whiteSpace=wrap;overflow=hidden;rotatable=0;points=[[0,0.5],[1,0.5]];portConstraint=eastwest;dropTarget=0;fontSize=15;" parent="2e49270ec7c68f3f-19" vertex="1">
          <mxGeometry y="134" width="180" height="26" as="geometry" />
        </mxCell>
        <mxCell id="2e49270ec7c68f3f-29" value="FK" style="shape=partialRectangle;top=0;left=0;bottom=0;html=1;fillColor=none;align=left;verticalAlign=top;spacingLeft=4;spacingRight=4;whiteSpace=wrap;overflow=hidden;rotatable=0;points=[];portConstraint=eastwest;part=1;" parent="2e49270ec7c68f3f-28" vertex="1" connectable="0">
          <mxGeometry width="30" height="25.999999999999996" as="geometry" />
        </mxCell>
        <mxCell id="Qn2qlTN2ILUu-nCu6F_l-2" value="id_credit_card" style="shape=partialRectangle;top=0;left=0;right=0;bottom=0;html=1;align=left;verticalAlign=top;fillColor=none;spacingLeft=34;spacingRight=4;whiteSpace=wrap;overflow=hidden;rotatable=0;points=[[0,0.5],[1,0.5]];portConstraint=eastwest;dropTarget=0;fontSize=15;" vertex="1" parent="2e49270ec7c68f3f-19">
          <mxGeometry y="160" width="180" height="30" as="geometry" />
        </mxCell>
        <mxCell id="Qn2qlTN2ILUu-nCu6F_l-3" value="FK" style="shape=partialRectangle;top=0;left=0;bottom=0;html=1;fillColor=none;align=left;verticalAlign=top;spacingLeft=4;spacingRight=4;whiteSpace=wrap;overflow=hidden;rotatable=0;points=[];portConstraint=eastwest;part=1;" vertex="1" connectable="0" parent="Qn2qlTN2ILUu-nCu6F_l-2">
          <mxGeometry width="30" height="30" as="geometry" />
        </mxCell>
        <mxCell id="2e49270ec7c68f3f-80" value="DIM Reason" style="swimlane;html=1;fontStyle=0;childLayout=stackLayout;horizontal=1;startSize=26;fillColor=#0c7605;horizontalStack=0;resizeParent=1;resizeLast=0;collapsible=1;marginBottom=0;swimlaneFillColor=#ffffff;align=center;rounded=0;shadow=0;comic=0;labelBackgroundColor=none;strokeWidth=1;fontFamily=Verdana;fontSize=14;strokeColor=#000000;fontColor=#ffffff;" parent="1" vertex="1">
          <mxGeometry x="60" y="230" width="160" height="66" as="geometry" />
        </mxCell>
        <mxCell id="2e49270ec7c68f3f-81" value="id_sales_reason" style="shape=partialRectangle;top=0;left=0;right=0;bottom=1;html=1;align=left;verticalAlign=middle;fillColor=none;spacingLeft=34;spacingRight=4;whiteSpace=wrap;overflow=hidden;rotatable=0;points=[[0,0.5],[1,0.5]];portConstraint=eastwest;dropTarget=0;fontStyle=1;fontSize=13;" parent="2e49270ec7c68f3f-80" vertex="1">
          <mxGeometry y="26" width="160" height="30" as="geometry" />
        </mxCell>
        <mxCell id="2e49270ec7c68f3f-82" value="PK" style="shape=partialRectangle;top=0;left=0;bottom=0;html=1;fillColor=none;align=left;verticalAlign=middle;spacingLeft=4;spacingRight=4;whiteSpace=wrap;overflow=hidden;rotatable=0;points=[];portConstraint=eastwest;part=1;" parent="2e49270ec7c68f3f-81" vertex="1" connectable="0">
          <mxGeometry width="30" height="30" as="geometry" />
        </mxCell>
        <mxCell id="Qn2qlTN2ILUu-nCu6F_l-4" value="" style="edgeStyle=entityRelationEdgeStyle;html=1;endArrow=ERmany;startArrow=diamond;labelBackgroundColor=none;fontFamily=Verdana;fontSize=14;entryX=1.019;entryY=0.3;exitX=0;exitY=0;startFill=0;entryDx=0;entryDy=0;entryPerimeter=0;exitDx=0;exitDy=0;endFill=0;" edge="1" parent="1" source="2e49270ec7c68f3f-19" target="2e49270ec7c68f3f-81">
          <mxGeometry width="100" height="100" relative="1" as="geometry">
            <mxPoint x="160" y="500" as="sourcePoint" />
            <mxPoint x="268.9200000000001" y="514.996" as="targetPoint" />
            <Array as="points">
              <mxPoint x="340" y="320" />
              <mxPoint x="300" y="300" />
            </Array>
          </mxGeometry>
        </mxCell>
        <mxCell id="Qn2qlTN2ILUu-nCu6F_l-5" value="DIM Credit Card" style="swimlane;html=1;fontStyle=0;childLayout=stackLayout;horizontal=1;startSize=26;fillColor=#0c7605;horizontalStack=0;resizeParent=1;resizeLast=0;collapsible=1;marginBottom=0;swimlaneFillColor=#ffffff;align=center;rounded=0;shadow=0;comic=0;labelBackgroundColor=none;strokeWidth=1;fontFamily=Verdana;fontSize=14;fontColor=#ffffff;" vertex="1" parent="1">
          <mxGeometry x="300" y="150" width="160" height="66" as="geometry" />
        </mxCell>
        <mxCell id="Qn2qlTN2ILUu-nCu6F_l-6" value="id_credit_card" style="shape=partialRectangle;top=0;left=0;right=0;bottom=1;html=1;align=left;verticalAlign=middle;fillColor=none;spacingLeft=34;spacingRight=4;whiteSpace=wrap;overflow=hidden;rotatable=0;points=[[0,0.5],[1,0.5]];portConstraint=eastwest;dropTarget=0;fontStyle=1;fontSize=13;" vertex="1" parent="Qn2qlTN2ILUu-nCu6F_l-5">
          <mxGeometry y="26" width="160" height="30" as="geometry" />
        </mxCell>
        <mxCell id="Qn2qlTN2ILUu-nCu6F_l-7" value="PK" style="shape=partialRectangle;top=0;left=0;bottom=0;html=1;fillColor=none;align=left;verticalAlign=middle;spacingLeft=4;spacingRight=4;whiteSpace=wrap;overflow=hidden;rotatable=0;points=[];portConstraint=eastwest;part=1;" vertex="1" connectable="0" parent="Qn2qlTN2ILUu-nCu6F_l-6">
          <mxGeometry width="30" height="30" as="geometry" />
        </mxCell>
        <mxCell id="Qn2qlTN2ILUu-nCu6F_l-8" value="DIM Sales Person" style="swimlane;html=1;fontStyle=0;childLayout=stackLayout;horizontal=1;startSize=26;fillColor=#0c7605;horizontalStack=0;resizeParent=1;resizeLast=0;collapsible=1;marginBottom=0;swimlaneFillColor=#ffffff;align=center;rounded=0;shadow=0;comic=0;labelBackgroundColor=none;strokeWidth=1;fontFamily=Verdana;fontSize=14;fontColor=#FFFAFA;" vertex="1" parent="1">
          <mxGeometry x="540" y="180" width="160" height="66" as="geometry" />
        </mxCell>
        <mxCell id="Qn2qlTN2ILUu-nCu6F_l-9" value="id_sales_person" style="shape=partialRectangle;top=0;left=0;right=0;bottom=1;html=1;align=left;verticalAlign=middle;fillColor=none;spacingLeft=34;spacingRight=4;whiteSpace=wrap;overflow=hidden;rotatable=0;points=[[0,0.5],[1,0.5]];portConstraint=eastwest;dropTarget=0;fontStyle=1;fontSize=13;" vertex="1" parent="Qn2qlTN2ILUu-nCu6F_l-8">
          <mxGeometry y="26" width="160" height="30" as="geometry" />
        </mxCell>
        <mxCell id="Qn2qlTN2ILUu-nCu6F_l-10" value="PK" style="shape=partialRectangle;top=0;left=0;bottom=0;html=1;fillColor=none;align=left;verticalAlign=middle;spacingLeft=4;spacingRight=4;whiteSpace=wrap;overflow=hidden;rotatable=0;points=[];portConstraint=eastwest;part=1;" vertex="1" connectable="0" parent="Qn2qlTN2ILUu-nCu6F_l-9">
          <mxGeometry width="30" height="30" as="geometry" />
        </mxCell>
        <mxCell id="Qn2qlTN2ILUu-nCu6F_l-18" value="" style="edgeStyle=entityRelationEdgeStyle;html=1;endArrow=ERmany;startArrow=diamond;labelBackgroundColor=none;fontFamily=Verdana;fontSize=14;exitX=0.5;exitY=0;startFill=0;exitDx=0;exitDy=0;endFill=0;entryX=0.5;entryY=1;entryDx=0;entryDy=0;" edge="1" parent="1" source="2e49270ec7c68f3f-19" target="Qn2qlTN2ILUu-nCu6F_l-5">
          <mxGeometry width="100" height="100" relative="1" as="geometry">
            <mxPoint x="347" y="298" as="sourcePoint" />
            <mxPoint x="390" y="250" as="targetPoint" />
            <Array as="points">
              <mxPoint x="400" y="320" />
              <mxPoint x="390" y="320" />
              <mxPoint x="410" y="330" />
            </Array>
          </mxGeometry>
        </mxCell>
        <mxCell id="Qn2qlTN2ILUu-nCu6F_l-19" value="DIM Customer" style="swimlane;html=1;fontStyle=0;childLayout=stackLayout;horizontal=1;startSize=26;fillColor=#0c7605;horizontalStack=0;resizeParent=1;resizeLast=0;collapsible=1;marginBottom=0;swimlaneFillColor=#ffffff;align=center;rounded=0;shadow=0;comic=0;labelBackgroundColor=none;strokeWidth=1;fontFamily=Verdana;fontSize=14;strokeColor=#000000;fontColor=#fefbfb;" vertex="1" parent="1">
          <mxGeometry x="590" y="320" width="160" height="66" as="geometry" />
        </mxCell>
        <mxCell id="Qn2qlTN2ILUu-nCu6F_l-20" value="id_customer" style="shape=partialRectangle;top=0;left=0;right=0;bottom=1;html=1;align=left;verticalAlign=middle;fillColor=none;spacingLeft=34;spacingRight=4;whiteSpace=wrap;overflow=hidden;rotatable=0;points=[[0,0.5],[1,0.5]];portConstraint=eastwest;dropTarget=0;fontStyle=1;fontSize=13;" vertex="1" parent="Qn2qlTN2ILUu-nCu6F_l-19">
          <mxGeometry y="26" width="160" height="30" as="geometry" />
        </mxCell>
        <mxCell id="Qn2qlTN2ILUu-nCu6F_l-21" value="PK" style="shape=partialRectangle;top=0;left=0;bottom=0;html=1;fillColor=none;align=left;verticalAlign=middle;spacingLeft=4;spacingRight=4;whiteSpace=wrap;overflow=hidden;rotatable=0;points=[];portConstraint=eastwest;part=1;" vertex="1" connectable="0" parent="Qn2qlTN2ILUu-nCu6F_l-20">
          <mxGeometry width="30" height="30" as="geometry" />
        </mxCell>
        <mxCell id="Qn2qlTN2ILUu-nCu6F_l-22" value="DIM Products" style="swimlane;html=1;fontStyle=0;childLayout=stackLayout;horizontal=1;startSize=26;fillColor=#0c7605;horizontalStack=0;resizeParent=1;resizeLast=0;collapsible=1;marginBottom=0;swimlaneFillColor=#ffffff;align=center;rounded=0;shadow=0;comic=0;labelBackgroundColor=none;strokeWidth=1;fontFamily=Verdana;fontSize=14;fontColor=#ffffff;" vertex="1" parent="1">
          <mxGeometry x="60" y="450" width="160" height="66" as="geometry" />
        </mxCell>
        <mxCell id="Qn2qlTN2ILUu-nCu6F_l-23" value="id_products" style="shape=partialRectangle;top=0;left=0;right=0;bottom=1;html=1;align=left;verticalAlign=middle;fillColor=none;spacingLeft=34;spacingRight=4;whiteSpace=wrap;overflow=hidden;rotatable=0;points=[[0,0.5],[1,0.5]];portConstraint=eastwest;dropTarget=0;fontStyle=1;fontSize=13;" vertex="1" parent="Qn2qlTN2ILUu-nCu6F_l-22">
          <mxGeometry y="26" width="160" height="30" as="geometry" />
        </mxCell>
        <mxCell id="Qn2qlTN2ILUu-nCu6F_l-24" value="PK" style="shape=partialRectangle;top=0;left=0;bottom=0;html=1;fillColor=none;align=left;verticalAlign=middle;spacingLeft=4;spacingRight=4;whiteSpace=wrap;overflow=hidden;rotatable=0;points=[];portConstraint=eastwest;part=1;" vertex="1" connectable="0" parent="Qn2qlTN2ILUu-nCu6F_l-23">
          <mxGeometry width="30" height="30" as="geometry" />
        </mxCell>
        <mxCell id="Qn2qlTN2ILUu-nCu6F_l-25" value="Dim Sales Territory" style="swimlane;html=1;fontStyle=0;childLayout=stackLayout;horizontal=1;startSize=26;fillColor=#0c7605;horizontalStack=0;resizeParent=1;resizeLast=0;collapsible=1;marginBottom=0;swimlaneFillColor=#ffffff;align=center;rounded=0;shadow=0;comic=0;labelBackgroundColor=none;strokeWidth=1;fontFamily=Verdana;fontSize=14;fontColor=#ffffff;" vertex="1" parent="1">
          <mxGeometry x="600" y="484" width="160" height="66" as="geometry" />
        </mxCell>
        <mxCell id="Qn2qlTN2ILUu-nCu6F_l-26" value="id_territory" style="shape=partialRectangle;top=0;left=0;right=0;bottom=1;html=1;align=left;verticalAlign=middle;fillColor=none;spacingLeft=34;spacingRight=4;whiteSpace=wrap;overflow=hidden;rotatable=0;points=[[0,0.5],[1,0.5]];portConstraint=eastwest;dropTarget=0;fontStyle=1;fontSize=13;" vertex="1" parent="Qn2qlTN2ILUu-nCu6F_l-25">
          <mxGeometry y="26" width="160" height="30" as="geometry" />
        </mxCell>
        <mxCell id="Qn2qlTN2ILUu-nCu6F_l-27" value="PK" style="shape=partialRectangle;top=0;left=0;bottom=0;html=1;fillColor=none;align=left;verticalAlign=middle;spacingLeft=4;spacingRight=4;whiteSpace=wrap;overflow=hidden;rotatable=0;points=[];portConstraint=eastwest;part=1;" vertex="1" connectable="0" parent="Qn2qlTN2ILUu-nCu6F_l-26">
          <mxGeometry width="30" height="30" as="geometry" />
        </mxCell>
        <mxCell id="Qn2qlTN2ILUu-nCu6F_l-28" value="" style="edgeStyle=entityRelationEdgeStyle;html=1;endArrow=ERmany;startArrow=diamond;labelBackgroundColor=none;fontFamily=Verdana;fontSize=14;entryX=0;entryY=0.25;exitX=1.006;exitY=0.089;startFill=0;entryDx=0;entryDy=0;exitDx=0;exitDy=0;endFill=0;exitPerimeter=0;" edge="1" parent="1" source="2e49270ec7c68f3f-19" target="Qn2qlTN2ILUu-nCu6F_l-25">
          <mxGeometry width="100" height="100" relative="1" as="geometry">
            <mxPoint x="587" y="425" as="sourcePoint" />
            <mxPoint x="500" y="261" as="targetPoint" />
          </mxGeometry>
        </mxCell>
        <mxCell id="Qn2qlTN2ILUu-nCu6F_l-29" value="" style="edgeStyle=entityRelationEdgeStyle;html=1;endArrow=ERmany;startArrow=diamond;labelBackgroundColor=none;fontFamily=Verdana;fontSize=14;entryX=1;entryY=0.5;startFill=0;entryDx=0;entryDy=0;endFill=0;" edge="1" parent="1" source="2e49270ec7c68f3f-19" target="Qn2qlTN2ILUu-nCu6F_l-23">
          <mxGeometry width="100" height="100" relative="1" as="geometry">
            <mxPoint x="320" y="479" as="sourcePoint" />
            <mxPoint x="233" y="315" as="targetPoint" />
          </mxGeometry>
        </mxCell>
        <mxCell id="Qn2qlTN2ILUu-nCu6F_l-30" value="" style="edgeStyle=entityRelationEdgeStyle;html=1;endArrow=ERmany;startArrow=diamond;labelBackgroundColor=none;fontFamily=Verdana;fontSize=14;entryX=0;entryY=0.25;exitX=1;exitY=0;startFill=0;entryDx=0;entryDy=0;exitDx=0;exitDy=0;endFill=0;" edge="1" parent="1" source="2e49270ec7c68f3f-19" target="Qn2qlTN2ILUu-nCu6F_l-19">
          <mxGeometry width="100" height="100" relative="1" as="geometry">
            <mxPoint x="500" y="374" as="sourcePoint" />
            <mxPoint x="610" y="511" as="targetPoint" />
          </mxGeometry>
        </mxCell>
        <mxCell id="Qn2qlTN2ILUu-nCu6F_l-31" value="" style="edgeStyle=entityRelationEdgeStyle;html=1;endArrow=ERmany;startArrow=diamond;labelBackgroundColor=none;fontFamily=Verdana;fontSize=14;exitX=0.75;exitY=0;startFill=0;exitDx=0;exitDy=0;endFill=0;entryX=0.25;entryY=1;entryDx=0;entryDy=0;" edge="1" parent="1" source="2e49270ec7c68f3f-19" target="Qn2qlTN2ILUu-nCu6F_l-8">
          <mxGeometry width="100" height="100" relative="1" as="geometry">
            <mxPoint x="450.00000000000006" y="328" as="sourcePoint" />
            <mxPoint x="550" y="270" as="targetPoint" />
            <Array as="points">
              <mxPoint x="460.06" y="239" />
            </Array>
          </mxGeometry>
        </mxCell>
        <mxCell id="Qn2qlTN2ILUu-nCu6F_l-33" value="Modelo Conceitual ADVENTURE WORKS BY JÚLIO BRAGA" style="text;align=center;verticalAlign=middle;whiteSpace=wrap;rounded=0;fontFamily=Verdana;fontSize=27;fontColor=#0c7605;labelBackgroundColor=#f9f5f5;labelBorderColor=default;" vertex="1" parent="1">
          <mxGeometry x="170" y="20" width="520" height="120" as="geometry" />
        </mxCell>
      </root>
    </mxGraphModel>
  </diagram>
</mxfile>
